<mxfile host="65bd71144e">
    <diagram id="6a731a19-8d31-9384-78a2-239565b7b9f0" name="Page-1">
        <mxGraphModel dx="1807" dy="1255" grid="1" gridSize="10" guides="1" tooltips="1" connect="1" arrows="1" fold="1" page="1" pageScale="1" pageWidth="1169" pageHeight="827" background="none" math="0" shadow="0">
            <root>
                <mxCell id="0"/>
                <mxCell id="1" parent="0"/>
                <mxCell id="1405" style="edgeStyle=none;html=1;exitX=0.5;exitY=1;exitDx=0;exitDy=0;entryX=0;entryY=0.5;entryDx=0;entryDy=0;" edge="1" parent="1" source="1350" target="1381">
                    <mxGeometry relative="1" as="geometry">
                        <Array as="points">
                            <mxPoint x="370" y="270"/>
                            <mxPoint x="290" y="270"/>
                            <mxPoint x="290" y="523"/>
                        </Array>
                    </mxGeometry>
                </mxCell>
                <mxCell id="1406" style="edgeStyle=none;html=1;exitX=0.5;exitY=1;exitDx=0;exitDy=0;entryX=0;entryY=0.5;entryDx=0;entryDy=0;" edge="1" parent="1" source="1350" target="1382">
                    <mxGeometry relative="1" as="geometry">
                        <Array as="points">
                            <mxPoint x="370" y="270"/>
                            <mxPoint x="290" y="270"/>
                            <mxPoint x="290" y="623"/>
                        </Array>
                    </mxGeometry>
                </mxCell>
                <mxCell id="1408" style="edgeStyle=none;html=1;exitX=0.5;exitY=1;exitDx=0;exitDy=0;entryX=0;entryY=0.5;entryDx=0;entryDy=0;" edge="1" parent="1" source="1350" target="1384">
                    <mxGeometry relative="1" as="geometry">
                        <Array as="points">
                            <mxPoint x="370" y="270"/>
                            <mxPoint x="290" y="270"/>
                            <mxPoint x="290" y="723"/>
                        </Array>
                    </mxGeometry>
                </mxCell>
                <mxCell id="1350" value="Air" style="ellipse;whiteSpace=wrap;html=1;shadow=0;fontFamily=Helvetica;fontSize=20;fontColor=#FFFFFF;align=center;strokeWidth=3;fillColor=#1699D3;strokeColor=none;" parent="1" vertex="1">
                    <mxGeometry x="310" y="50" width="120" height="120" as="geometry"/>
                </mxCell>
                <mxCell id="1351" value="Ground&lt;br&gt;" style="ellipse;whiteSpace=wrap;html=1;shadow=0;fontFamily=Helvetica;fontSize=20;fontColor=#FFFFFF;align=center;strokeWidth=3;fillColor=#F08705;strokeColor=none;gradientColor=none;" parent="1" vertex="1">
                    <mxGeometry x="1090" y="50" width="120" height="120" as="geometry"/>
                </mxCell>
                <mxCell id="1352" value="Light" style="ellipse;whiteSpace=wrap;html=1;shadow=0;fontFamily=Helvetica;fontSize=20;fontColor=#FFFFFF;align=center;strokeWidth=3;fillColor=#E85642;strokeColor=none;" parent="1" vertex="1">
                    <mxGeometry x="830" y="50" width="120" height="120" as="geometry"/>
                </mxCell>
                <mxCell id="1392" style="edgeStyle=none;html=1;exitX=0.5;exitY=1;exitDx=0;exitDy=0;entryX=0;entryY=0.5;entryDx=0;entryDy=0;" edge="1" parent="1" source="1353" target="1362">
                    <mxGeometry relative="1" as="geometry">
                        <mxPoint x="1430" y="630" as="targetPoint"/>
                        <Array as="points">
                            <mxPoint x="1400" y="637"/>
                        </Array>
                    </mxGeometry>
                </mxCell>
                <mxCell id="1394" style="edgeStyle=none;html=1;exitX=0.5;exitY=1;exitDx=0;exitDy=0;entryX=0;entryY=0.5;entryDx=0;entryDy=0;" edge="1" parent="1" source="1353" target="1366">
                    <mxGeometry relative="1" as="geometry">
                        <Array as="points">
                            <mxPoint x="1400" y="513"/>
                        </Array>
                    </mxGeometry>
                </mxCell>
                <mxCell id="1353" value="Water" style="ellipse;whiteSpace=wrap;html=1;shadow=0;fontFamily=Helvetica;fontSize=20;fontColor=#FFFFFF;align=center;strokeWidth=3;fillColor=#1699D3;strokeColor=none;" parent="1" vertex="1">
                    <mxGeometry x="1340" y="50" width="120" height="120" as="geometry"/>
                </mxCell>
                <mxCell id="1354" value="Knowledge-&lt;br&gt;Base" style="ellipse;whiteSpace=wrap;html=1;shadow=0;fontFamily=Helvetica;fontSize=20;fontColor=#FFFFFF;align=center;strokeWidth=3;fillColor=#736ca8;strokeColor=none;" parent="1" vertex="1">
                    <mxGeometry x="1623.5" y="60" width="120" height="120" as="geometry"/>
                </mxCell>
                <mxCell id="1403" style="edgeStyle=none;html=1;exitX=0.5;exitY=1;exitDx=0;exitDy=0;entryX=0;entryY=0.5;entryDx=0;entryDy=0;" edge="1" parent="1" source="1355" target="1359">
                    <mxGeometry relative="1" as="geometry">
                        <Array as="points">
                            <mxPoint x="1930" y="280"/>
                            <mxPoint x="1670" y="280"/>
                            <mxPoint x="1420" y="280"/>
                            <mxPoint x="1420" y="1029"/>
                        </Array>
                    </mxGeometry>
                </mxCell>
                <mxCell id="1409" style="edgeStyle=none;html=1;exitX=0.5;exitY=1;exitDx=0;exitDy=0;entryX=0;entryY=0.5;entryDx=0;entryDy=0;" edge="1" parent="1" source="1355" target="1383">
                    <mxGeometry relative="1" as="geometry">
                        <mxPoint x="780" y="709.9999999999998" as="targetPoint"/>
                        <Array as="points">
                            <mxPoint x="1930" y="280"/>
                            <mxPoint x="310" y="280"/>
                            <mxPoint x="310" y="943"/>
                        </Array>
                    </mxGeometry>
                </mxCell>
                <mxCell id="1355" value="Management" style="ellipse;whiteSpace=wrap;html=1;shadow=0;fontFamily=Helvetica;fontSize=20;fontColor=#FFFFFF;align=center;strokeWidth=3;fillColor=#F08705;strokeColor=none;" parent="1" vertex="1">
                    <mxGeometry x="1870" y="50" width="120" height="120" as="geometry"/>
                </mxCell>
                <mxCell id="1356" value="HMI" style="ellipse;whiteSpace=wrap;html=1;shadow=0;fontFamily=Helvetica;fontSize=20;fontColor=#FFFFFF;align=center;strokeWidth=3;fillColor=#E85642;strokeColor=none;" parent="1" vertex="1">
                    <mxGeometry x="574.5" y="50" width="120" height="120" as="geometry"/>
                </mxCell>
                <mxCell id="c_k1VmWnNJ4SqKrowzxm-1541" value="Air" style="ellipse;whiteSpace=wrap;html=1;shadow=0;fontFamily=Helvetica;fontSize=20;fontColor=#FFFFFF;align=center;strokeWidth=3;fillColor=#1699D3;strokeColor=none;" parent="1" vertex="1">
                    <mxGeometry x="330" y="1430" width="120" height="120" as="geometry"/>
                </mxCell>
                <mxCell id="c_k1VmWnNJ4SqKrowzxm-1542" value="Ground&lt;br&gt;" style="ellipse;whiteSpace=wrap;html=1;shadow=0;fontFamily=Helvetica;fontSize=20;fontColor=#FFFFFF;align=center;strokeWidth=3;fillColor=#F08705;strokeColor=none;gradientColor=none;" parent="1" vertex="1">
                    <mxGeometry x="1110" y="1430" width="120" height="120" as="geometry"/>
                </mxCell>
                <mxCell id="c_k1VmWnNJ4SqKrowzxm-1543" value="Light" style="ellipse;whiteSpace=wrap;html=1;shadow=0;fontFamily=Helvetica;fontSize=20;fontColor=#FFFFFF;align=center;strokeWidth=3;fillColor=#E85642;strokeColor=none;" parent="1" vertex="1">
                    <mxGeometry x="850" y="1430" width="120" height="120" as="geometry"/>
                </mxCell>
                <mxCell id="c_k1VmWnNJ4SqKrowzxm-1544" value="Water" style="ellipse;whiteSpace=wrap;html=1;shadow=0;fontFamily=Helvetica;fontSize=20;fontColor=#FFFFFF;align=center;strokeWidth=3;fillColor=#1699D3;strokeColor=none;" parent="1" vertex="1">
                    <mxGeometry x="1390" y="1430" width="120" height="120" as="geometry"/>
                </mxCell>
                <mxCell id="c_k1VmWnNJ4SqKrowzxm-1545" value="Knowledge-&lt;br&gt;Base" style="ellipse;whiteSpace=wrap;html=1;shadow=0;fontFamily=Helvetica;fontSize=20;fontColor=#FFFFFF;align=center;strokeWidth=3;fillColor=#736ca8;strokeColor=none;" parent="1" vertex="1">
                    <mxGeometry x="1643.5" y="1440" width="120" height="120" as="geometry"/>
                </mxCell>
                <mxCell id="c_k1VmWnNJ4SqKrowzxm-1546" value="Management" style="ellipse;whiteSpace=wrap;html=1;shadow=0;fontFamily=Helvetica;fontSize=20;fontColor=#FFFFFF;align=center;strokeWidth=3;fillColor=#F08705;strokeColor=none;" parent="1" vertex="1">
                    <mxGeometry x="1890" y="1430" width="120" height="120" as="geometry"/>
                </mxCell>
                <mxCell id="c_k1VmWnNJ4SqKrowzxm-1547" value="HMI" style="ellipse;whiteSpace=wrap;html=1;shadow=0;fontFamily=Helvetica;fontSize=20;fontColor=#FFFFFF;align=center;strokeWidth=3;fillColor=#E85642;strokeColor=none;" parent="1" vertex="1">
                    <mxGeometry x="594.5" y="1430" width="120" height="120" as="geometry"/>
                </mxCell>
                <mxCell id="c_k1VmWnNJ4SqKrowzxm-1550" value="&lt;font style=&quot;font-size: 48px&quot;&gt;Topics&lt;/font&gt;" style="text;html=1;strokeColor=none;fillColor=none;align=center;verticalAlign=middle;whiteSpace=wrap;rounded=0;" parent="1" vertex="1">
                    <mxGeometry y="250" width="240" height="80" as="geometry"/>
                </mxCell>
                <mxCell id="c_k1VmWnNJ4SqKrowzxm-1552" value="&lt;font style=&quot;font-size: 48px&quot;&gt;Subscribe&lt;/font&gt;" style="text;html=1;strokeColor=none;fillColor=none;align=center;verticalAlign=middle;whiteSpace=wrap;rounded=0;" parent="1" vertex="1">
                    <mxGeometry x="20" y="1450" width="240" height="80" as="geometry"/>
                </mxCell>
                <mxCell id="c_k1VmWnNJ4SqKrowzxm-1554" value="&lt;font style=&quot;font-size: 48px&quot;&gt;Publish&lt;/font&gt;" style="text;html=1;strokeColor=none;fillColor=none;align=center;verticalAlign=middle;whiteSpace=wrap;rounded=0;" parent="1" vertex="1">
                    <mxGeometry x="20" y="80" width="240" height="80" as="geometry"/>
                </mxCell>
                <mxCell id="c_k1VmWnNJ4SqKrowzxm-1556" value="&lt;font style=&quot;font-size: 24px&quot;&gt;Water&lt;/font&gt;" style="rounded=1;whiteSpace=wrap;html=1;" parent="1" vertex="1">
                    <mxGeometry x="1230" y="367" width="150" height="90" as="geometry"/>
                </mxCell>
                <mxCell id="c_k1VmWnNJ4SqKrowzxm-1559" value="&lt;font style=&quot;font-size: 24px&quot;&gt;Ground&lt;/font&gt;" style="rounded=1;whiteSpace=wrap;html=1;" parent="1" vertex="1">
                    <mxGeometry x="920" y="370" width="150" height="80" as="geometry"/>
                </mxCell>
                <mxCell id="c_k1VmWnNJ4SqKrowzxm-1561" value="&lt;font style=&quot;font-size: 24px&quot;&gt;Light&lt;/font&gt;" style="rounded=1;whiteSpace=wrap;html=1;" parent="1" vertex="1">
                    <mxGeometry x="579.5" y="369" width="150" height="86" as="geometry"/>
                </mxCell>
                <mxCell id="1359" value="&lt;font style=&quot;font-size: 24px&quot;&gt;Ventil&lt;/font&gt;" style="rounded=1;whiteSpace=wrap;html=1;" vertex="1" parent="1">
                    <mxGeometry x="1440" y="986" width="150" height="86" as="geometry"/>
                </mxCell>
                <mxCell id="1362" value="&lt;span style=&quot;font-size: 24px&quot;&gt;Wasserstand&lt;/span&gt;" style="rounded=1;whiteSpace=wrap;html=1;" vertex="1" parent="1">
                    <mxGeometry x="1440" y="594" width="150" height="86" as="geometry"/>
                </mxCell>
                <mxCell id="1397" style="edgeStyle=none;html=1;exitX=1;exitY=0.5;exitDx=0;exitDy=0;entryX=0.5;entryY=0;entryDx=0;entryDy=0;" edge="1" parent="1" source="1366" target="c_k1VmWnNJ4SqKrowzxm-1546">
                    <mxGeometry relative="1" as="geometry">
                        <Array as="points">
                            <mxPoint x="1950" y="513"/>
                        </Array>
                    </mxGeometry>
                </mxCell>
                <mxCell id="1366" value="&lt;font style=&quot;font-size: 24px&quot;&gt;Temperatur&lt;/font&gt;" style="rounded=1;whiteSpace=wrap;html=1;" vertex="1" parent="1">
                    <mxGeometry x="1440" y="470" width="150" height="86" as="geometry"/>
                </mxCell>
                <mxCell id="1381" value="&lt;font style=&quot;font-size: 24px&quot;&gt;CO2&lt;/font&gt;" style="rounded=1;whiteSpace=wrap;html=1;" vertex="1" parent="1">
                    <mxGeometry x="330" y="480" width="150" height="86" as="geometry"/>
                </mxCell>
                <mxCell id="1382" value="&lt;font style=&quot;font-size: 24px&quot;&gt;Luftdruck&lt;/font&gt;" style="rounded=1;whiteSpace=wrap;html=1;" vertex="1" parent="1">
                    <mxGeometry x="330" y="580" width="150" height="86" as="geometry"/>
                </mxCell>
                <mxCell id="1383" value="&lt;font style=&quot;font-size: 24px&quot;&gt;Heizung&lt;/font&gt;" style="rounded=1;whiteSpace=wrap;html=1;" vertex="1" parent="1">
                    <mxGeometry x="330" y="900" width="150" height="86" as="geometry"/>
                </mxCell>
                <mxCell id="1384" value="&lt;font style=&quot;font-size: 24px&quot;&gt;Temperatur&lt;/font&gt;" style="rounded=1;whiteSpace=wrap;html=1;" vertex="1" parent="1">
                    <mxGeometry x="330" y="680" width="150" height="86" as="geometry"/>
                </mxCell>
                <mxCell id="1385" value="&lt;font style=&quot;font-size: 24px&quot;&gt;Luft&lt;/font&gt;" style="rounded=1;whiteSpace=wrap;html=1;" vertex="1" parent="1">
                    <mxGeometry x="180" y="360" width="90" height="80" as="geometry"/>
                </mxCell>
                <mxCell id="1386" value="&lt;font style=&quot;font-size: 24px&quot;&gt;Zerstäuber&lt;/font&gt;" style="rounded=1;whiteSpace=wrap;html=1;" vertex="1" parent="1">
                    <mxGeometry x="330" y="1000" width="150" height="86" as="geometry"/>
                </mxCell>
                <mxCell id="1388" value="&lt;font style=&quot;font-size: 24px&quot;&gt;Sensoren&lt;/font&gt;" style="rounded=1;whiteSpace=wrap;html=1;" vertex="1" parent="1">
                    <mxGeometry x="20" y="340" width="150" height="480" as="geometry"/>
                </mxCell>
                <mxCell id="1389" value="&lt;font style=&quot;font-size: 24px&quot;&gt;Aktoren&lt;/font&gt;" style="rounded=1;whiteSpace=wrap;html=1;" vertex="1" parent="1">
                    <mxGeometry x="20" y="864" width="150" height="576" as="geometry"/>
                </mxCell>
                <mxCell id="1399" value="&lt;font style=&quot;font-size: 24px&quot;&gt;Knowlege&lt;/font&gt;" style="rounded=1;whiteSpace=wrap;html=1;" vertex="1" parent="1">
                    <mxGeometry x="1650" y="350" width="150" height="90" as="geometry"/>
                </mxCell>
                <mxCell id="1400" value="&lt;font style=&quot;font-size: 24px&quot;&gt;Temperatur&lt;/font&gt;" style="rounded=1;whiteSpace=wrap;html=1;" vertex="1" parent="1">
                    <mxGeometry x="1010" y="480" width="150" height="86" as="geometry"/>
                </mxCell>
            </root>
        </mxGraphModel>
    </diagram>
</mxfile>